<svg width="659" height="44" viewBox="0 0 659 44" fill="none" xmlns="http://www.w3.org/2000/svg">
<rect width="659" height="44" rx="4" fill="#FFFEE6"/>
<path fill-rule="evenodd" clip-rule="evenodd" d="M23.9999 15.3333C27.6818 15.3333 30.6666 18.3181 30.6666 22C30.6666 25.6819 27.6818 28.6667 23.9999 28.6667C20.318 28.6667 17.3333 25.6819 17.3333 22C17.3333 18.3181 20.318 15.3333 23.9999 15.3333Z" stroke="#0067E2" stroke-width="1.5" stroke-linecap="round" stroke-linejoin="round"/>
<path d="M24 24.6667V22" stroke="#0067E2" stroke-width="1.5" stroke-linecap="round" stroke-linejoin="round"/>
<ellipse rx="0.666668" ry="0.666667" transform="matrix(1 0 0 -1 23.9999 19.3333)" fill="#0067E2"/>
<path d="M48.652 17.13L44.774 22.338V27H43.626V22.324L39.748 17.13H41.078L44.214 21.386L47.35 17.13H48.652ZM51.2198 27.098C50.5758 27.098 50.0065 26.9533 49.5118 26.664C49.0265 26.3747 48.6485 25.964 48.3778 25.432C48.1165 24.8907 47.9858 24.2653 47.9858 23.556C47.9858 22.8467 48.1165 22.226 48.3778 21.694C48.6485 21.1527 49.0265 20.7373 49.5118 20.448C50.0065 20.1587 50.5758 20.014 51.2198 20.014C51.8638 20.014 52.4331 20.1587 52.9278 20.448C53.4225 20.7373 53.8005 21.1527 54.0618 21.694C54.3325 22.226 54.4678 22.8467 54.4678 23.556C54.4678 24.2653 54.3325 24.8907 54.0618 25.432C53.8005 25.964 53.4225 26.3747 52.9278 26.664C52.4331 26.9533 51.8638 27.098 51.2198 27.098ZM51.2198 26.16C51.8918 26.16 52.4051 25.9407 52.7598 25.502C53.1238 25.054 53.3058 24.4053 53.3058 23.556C53.3058 22.7253 53.1238 22.086 52.7598 21.638C52.3958 21.1807 51.8825 20.952 51.2198 20.952C50.5571 20.952 50.0438 21.1807 49.6798 21.638C49.3158 22.086 49.1338 22.7253 49.1338 23.556C49.1338 24.396 49.3111 25.04 49.6658 25.488C50.0298 25.936 50.5478 26.16 51.2198 26.16ZM61.8974 20.182V27H60.7914V25.838C60.5768 26.2487 60.2734 26.5613 59.8814 26.776C59.4988 26.9907 59.0648 27.098 58.5794 27.098C57.7674 27.098 57.1561 26.874 56.7454 26.426C56.3348 25.9687 56.1294 25.2967 56.1294 24.41V20.182H57.2634V24.382C57.2634 24.9887 57.3848 25.4367 57.6274 25.726C57.8701 26.006 58.2528 26.146 58.7754 26.146C59.3728 26.146 59.8534 25.9547 60.2174 25.572C60.5814 25.18 60.7634 24.6667 60.7634 24.032V20.182H61.8974ZM76.8685 20.182H78.0025L75.4685 27H74.3765L72.4585 21.722L70.5265 27H69.4485L66.9145 20.182H68.0905L70.0225 25.656L71.9965 20.182H72.9765L74.9225 25.656L76.8685 20.182ZM82.1456 27.098C81.5016 27.098 80.9322 26.9533 80.4376 26.664C79.9522 26.3747 79.5742 25.964 79.3036 25.432C79.0422 24.8907 78.9116 24.2653 78.9116 23.556C78.9116 22.8467 79.0422 22.226 79.3036 21.694C79.5742 21.1527 79.9522 20.7373 80.4376 20.448C80.9322 20.1587 81.5016 20.014 82.1456 20.014C82.7896 20.014 83.3589 20.1587 83.8536 20.448C84.3482 20.7373 84.7262 21.1527 84.9876 21.694C85.2582 22.226 85.3936 22.8467 85.3936 23.556C85.3936 24.2653 85.2582 24.8907 84.9876 25.432C84.7262 25.964 84.3482 26.3747 83.8536 26.664C83.3589 26.9533 82.7896 27.098 82.1456 27.098ZM82.1456 26.16C82.8176 26.16 83.3309 25.9407 83.6856 25.502C84.0496 25.054 84.2316 24.4053 84.2316 23.556C84.2316 22.7253 84.0496 22.086 83.6856 21.638C83.3216 21.1807 82.8082 20.952 82.1456 20.952C81.4829 20.952 80.9696 21.1807 80.6056 21.638C80.2416 22.086 80.0596 22.7253 80.0596 23.556C80.0596 24.396 80.2369 25.04 80.5916 25.488C80.9556 25.936 81.4736 26.16 82.1456 26.16ZM90.5132 20.014C92.1465 20.014 92.9632 20.9147 92.9632 22.716V27H91.8292V22.786C91.8292 22.1513 91.7032 21.6893 91.4512 21.4C91.2085 21.1107 90.8165 20.966 90.2752 20.966C89.6499 20.966 89.1505 21.1573 88.7772 21.54C88.4039 21.9227 88.2172 22.4407 88.2172 23.094V27H87.0832V20.182H88.2032V21.302C88.4272 20.882 88.7399 20.5647 89.1412 20.35C89.5425 20.126 89.9999 20.014 90.5132 20.014ZM96.0405 17.13V18.138C96.0405 18.53 95.9751 18.8893 95.8445 19.216C95.7231 19.5427 95.5085 19.86 95.2005 20.168L94.6685 19.748C95.0325 19.3467 95.2378 18.95 95.2845 18.558H94.6125V17.13H96.0405ZM101.017 26.188C101.222 26.188 101.427 26.174 101.633 26.146L101.577 27.042C101.362 27.0793 101.129 27.098 100.877 27.098C100.055 27.098 99.4347 26.8833 99.0147 26.454C98.604 26.0247 98.3987 25.4273 98.3987 24.662V21.078H97.0687V20.182H98.3987V18.11H99.5327V20.182H101.465V21.078H99.5327V24.578C99.5327 25.6513 100.027 26.188 101.017 26.188ZM109.818 20.014C110.415 20.014 110.943 20.1587 111.4 20.448C111.857 20.7373 112.212 21.148 112.464 21.68C112.716 22.212 112.842 22.828 112.842 23.528C112.842 24.2373 112.716 24.8627 112.464 25.404C112.212 25.936 111.857 26.3513 111.4 26.65C110.943 26.9487 110.415 27.098 109.818 27.098C109.286 27.098 108.819 26.9813 108.418 26.748C108.026 26.5147 107.727 26.1833 107.522 25.754V27H106.388V17.13H107.522V21.358C107.727 20.9287 108.026 20.5973 108.418 20.364C108.819 20.1307 109.286 20.014 109.818 20.014ZM109.594 26.16C110.257 26.16 110.77 25.9313 111.134 25.474C111.498 25.0073 111.68 24.3587 111.68 23.528C111.68 22.716 111.498 22.086 111.134 21.638C110.77 21.19 110.257 20.966 109.594 20.966C108.931 20.966 108.418 21.19 108.054 21.638C107.699 22.086 107.522 22.7253 107.522 23.556C107.522 24.3867 107.699 25.0307 108.054 25.488C108.418 25.936 108.931 26.16 109.594 26.16ZM120.248 23.766H115.264C115.302 24.5593 115.516 25.1613 115.908 25.572C116.3 25.9733 116.856 26.174 117.574 26.174C118.368 26.174 119.096 25.9033 119.758 25.362L120.136 26.188C119.838 26.468 119.455 26.692 118.988 26.86C118.522 27.0187 118.046 27.098 117.56 27.098C116.496 27.098 115.656 26.7853 115.04 26.16C114.434 25.5347 114.13 24.6713 114.13 23.57C114.13 22.87 114.266 22.254 114.536 21.722C114.807 21.1807 115.185 20.7607 115.67 20.462C116.165 20.1633 116.725 20.014 117.35 20.014C118.256 20.014 118.965 20.3127 119.478 20.91C119.992 21.498 120.248 22.31 120.248 23.346V23.766ZM117.364 20.896C116.767 20.896 116.286 21.0827 115.922 21.456C115.568 21.8293 115.358 22.3567 115.292 23.038H119.254C119.236 22.3473 119.063 21.82 118.736 21.456C118.41 21.0827 117.952 20.896 117.364 20.896ZM128.301 20.014C129.169 20.014 129.813 20.238 130.233 20.686C130.662 21.1247 130.877 21.7967 130.877 22.702V27H129.771V25.838C129.593 26.2393 129.323 26.552 128.959 26.776C128.595 26.9907 128.175 27.098 127.699 27.098C127.26 27.098 126.854 27.0093 126.481 26.832C126.117 26.6547 125.827 26.4073 125.613 26.09C125.398 25.7727 125.291 25.4227 125.291 25.04C125.291 24.5267 125.421 24.13 125.683 23.85C125.944 23.5607 126.373 23.3553 126.971 23.234C127.568 23.1033 128.399 23.038 129.463 23.038H129.771V22.576C129.771 22.0067 129.654 21.596 129.421 21.344C129.187 21.0827 128.809 20.952 128.287 20.952C127.503 20.952 126.723 21.1947 125.949 21.68L125.571 20.854C125.925 20.602 126.35 20.4013 126.845 20.252C127.349 20.0933 127.834 20.014 128.301 20.014ZM127.853 26.202C128.413 26.202 128.87 26.0153 129.225 25.642C129.589 25.2593 129.771 24.7693 129.771 24.172V23.766H129.519C128.697 23.766 128.072 23.8033 127.643 23.878C127.213 23.9433 126.905 24.06 126.719 24.228C126.541 24.3867 126.453 24.6247 126.453 24.942C126.453 25.306 126.583 25.6093 126.845 25.852C127.115 26.0853 127.451 26.202 127.853 26.202ZM136.382 20.014C136.98 20.014 137.507 20.1587 137.964 20.448C138.422 20.7373 138.776 21.148 139.028 21.68C139.28 22.212 139.406 22.828 139.406 23.528C139.406 24.2373 139.28 24.8627 139.028 25.404C138.776 25.936 138.422 26.3513 137.964 26.65C137.507 26.9487 136.98 27.098 136.382 27.098C135.85 27.098 135.384 26.9813 134.982 26.748C134.59 26.5147 134.292 26.1833 134.086 25.754V27H132.952V17.13H134.086V21.358C134.292 20.9287 134.59 20.5973 134.982 20.364C135.384 20.1307 135.85 20.014 136.382 20.014ZM136.158 26.16C136.821 26.16 137.334 25.9313 137.698 25.474C138.062 25.0073 138.244 24.3587 138.244 23.528C138.244 22.716 138.062 22.086 137.698 21.638C137.334 21.19 136.821 20.966 136.158 20.966C135.496 20.966 134.982 21.19 134.618 21.638C134.264 22.086 134.086 22.7253 134.086 23.556C134.086 24.3867 134.264 25.0307 134.618 25.488C134.982 25.936 135.496 26.16 136.158 26.16ZM141.101 27V17.13H142.235V27H141.101ZM150.067 23.766H145.083C145.12 24.5593 145.335 25.1613 145.727 25.572C146.119 25.9733 146.674 26.174 147.393 26.174C148.186 26.174 148.914 25.9033 149.577 25.362L149.955 26.188C149.656 26.468 149.273 26.692 148.807 26.86C148.34 27.0187 147.864 27.098 147.379 27.098C146.315 27.098 145.475 26.7853 144.859 26.16C144.252 25.5347 143.949 24.6713 143.949 23.57C143.949 22.87 144.084 22.254 144.355 21.722C144.625 21.1807 145.003 20.7607 145.489 20.462C145.983 20.1633 146.543 20.014 147.169 20.014C148.074 20.014 148.783 20.3127 149.297 20.91C149.81 21.498 150.067 22.31 150.067 23.346V23.766ZM147.183 20.896C146.585 20.896 146.105 21.0827 145.741 21.456C145.386 21.8293 145.176 22.3567 145.111 23.038H149.073C149.054 22.3473 148.881 21.82 148.555 21.456C148.228 21.0827 147.771 20.896 147.183 20.896ZM158.343 26.188C158.548 26.188 158.754 26.174 158.959 26.146L158.903 27.042C158.688 27.0793 158.455 27.098 158.203 27.098C157.382 27.098 156.761 26.8833 156.341 26.454C155.93 26.0247 155.725 25.4273 155.725 24.662V21.078H154.395V20.182H155.725V18.11H156.859V20.182H158.791V21.078H156.859V24.578C156.859 25.6513 157.354 26.188 158.343 26.188ZM162.933 27.098C162.289 27.098 161.719 26.9533 161.225 26.664C160.739 26.3747 160.361 25.964 160.091 25.432C159.829 24.8907 159.699 24.2653 159.699 23.556C159.699 22.8467 159.829 22.226 160.091 21.694C160.361 21.1527 160.739 20.7373 161.225 20.448C161.719 20.1587 162.289 20.014 162.933 20.014C163.577 20.014 164.146 20.1587 164.641 20.448C165.135 20.7373 165.513 21.1527 165.775 21.694C166.045 22.226 166.181 22.8467 166.181 23.556C166.181 24.2653 166.045 24.8907 165.775 25.432C165.513 25.964 165.135 26.3747 164.641 26.664C164.146 26.9533 163.577 27.098 162.933 27.098ZM162.933 26.16C163.605 26.16 164.118 25.9407 164.473 25.502C164.837 25.054 165.019 24.4053 165.019 23.556C165.019 22.7253 164.837 22.086 164.473 21.638C164.109 21.1807 163.595 20.952 162.933 20.952C162.27 20.952 161.757 21.1807 161.393 21.638C161.029 22.086 160.847 22.7253 160.847 23.556C160.847 24.396 161.024 25.04 161.379 25.488C161.743 25.936 162.261 26.16 162.933 26.16ZM174.364 27.098C173.692 27.098 173.108 26.9533 172.614 26.664C172.119 26.3747 171.736 25.9687 171.466 25.446C171.204 24.914 171.074 24.2933 171.074 23.584C171.074 22.8747 171.209 22.254 171.48 21.722C171.76 21.1807 172.147 20.7607 172.642 20.462C173.146 20.1633 173.734 20.014 174.406 20.014C174.863 20.014 175.311 20.098 175.75 20.266C176.188 20.4247 176.543 20.6393 176.814 20.91L176.436 21.75C175.792 21.2273 175.138 20.966 174.476 20.966C173.776 20.966 173.23 21.1947 172.838 21.652C172.446 22.1093 172.25 22.7533 172.25 23.584C172.25 24.4053 172.446 25.04 172.838 25.488C173.23 25.936 173.776 26.16 174.476 26.16C175.138 26.16 175.792 25.8987 176.436 25.376L176.814 26.216C176.524 26.4867 176.16 26.7013 175.722 26.86C175.283 27.0187 174.83 27.098 174.364 27.098ZM181.609 20.014C183.242 20.014 184.059 20.9147 184.059 22.716V27H182.925V22.786C182.925 22.1513 182.799 21.6893 182.547 21.4C182.304 21.1107 181.912 20.966 181.371 20.966C180.746 20.966 180.246 21.1573 179.873 21.54C179.5 21.9227 179.313 22.4407 179.313 23.094V27H178.179V17.13H179.313V21.274C179.537 20.8633 179.845 20.5507 180.237 20.336C180.638 20.1213 181.096 20.014 181.609 20.014ZM188.908 20.014C189.776 20.014 190.42 20.238 190.84 20.686C191.269 21.1247 191.484 21.7967 191.484 22.702V27H190.378V25.838C190.201 26.2393 189.93 26.552 189.566 26.776C189.202 26.9907 188.782 27.098 188.306 27.098C187.867 27.098 187.461 27.0093 187.088 26.832C186.724 26.6547 186.435 26.4073 186.22 26.09C186.005 25.7727 185.898 25.4227 185.898 25.04C185.898 24.5267 186.029 24.13 186.29 23.85C186.551 23.5607 186.981 23.3553 187.578 23.234C188.175 23.1033 189.006 23.038 190.07 23.038H190.378V22.576C190.378 22.0067 190.261 21.596 190.028 21.344C189.795 21.0827 189.417 20.952 188.894 20.952C188.11 20.952 187.331 21.1947 186.556 21.68L186.178 20.854C186.533 20.602 186.957 20.4013 187.452 20.252C187.956 20.0933 188.441 20.014 188.908 20.014ZM188.46 26.202C189.02 26.202 189.477 26.0153 189.832 25.642C190.196 25.2593 190.378 24.7693 190.378 24.172V23.766H190.126C189.305 23.766 188.679 23.8033 188.25 23.878C187.821 23.9433 187.513 24.06 187.326 24.228C187.149 24.3867 187.06 24.6247 187.06 24.942C187.06 25.306 187.191 25.6093 187.452 25.852C187.723 26.0853 188.059 26.202 188.46 26.202ZM196.99 20.014C198.623 20.014 199.44 20.9147 199.44 22.716V27H198.306V22.786C198.306 22.1513 198.18 21.6893 197.928 21.4C197.685 21.1107 197.293 20.966 196.752 20.966C196.126 20.966 195.627 21.1573 195.254 21.54C194.88 21.9227 194.694 22.4407 194.694 23.094V27H193.56V20.182H194.68V21.302C194.904 20.882 195.216 20.5647 195.618 20.35C196.019 20.126 196.476 20.014 196.99 20.014ZM207.621 20.182V26.538C207.621 27.5553 207.359 28.3207 206.837 28.834C206.314 29.3567 205.539 29.618 204.513 29.618C203.318 29.618 202.315 29.31 201.503 28.694L201.881 27.854C202.338 28.1527 202.767 28.3673 203.169 28.498C203.57 28.6287 204.018 28.694 204.513 28.694C205.166 28.694 205.661 28.5167 205.997 28.162C206.333 27.8167 206.501 27.308 206.501 26.636V25.432C206.305 25.8707 206.001 26.2067 205.591 26.44C205.189 26.6733 204.713 26.79 204.163 26.79C203.565 26.79 203.033 26.65 202.567 26.37C202.109 26.09 201.75 25.6933 201.489 25.18C201.237 24.6667 201.111 24.074 201.111 23.402C201.111 22.73 201.237 22.1373 201.489 21.624C201.75 21.1107 202.109 20.714 202.567 20.434C203.033 20.154 203.565 20.014 204.163 20.014C204.704 20.014 205.175 20.1307 205.577 20.364C205.978 20.5973 206.281 20.9287 206.487 21.358V20.182H207.621ZM204.387 25.852C205.04 25.852 205.553 25.6373 205.927 25.208C206.3 24.7693 206.487 24.1673 206.487 23.402C206.487 22.646 206.3 22.0533 205.927 21.624C205.563 21.1853 205.049 20.966 204.387 20.966C203.724 20.966 203.201 21.1853 202.819 21.624C202.445 22.0533 202.259 22.646 202.259 23.402C202.259 24.1673 202.445 24.7693 202.819 25.208C203.201 25.6373 203.724 25.852 204.387 25.852ZM215.432 23.766H210.448C210.485 24.5593 210.7 25.1613 211.092 25.572C211.484 25.9733 212.039 26.174 212.758 26.174C213.551 26.174 214.279 25.9033 214.942 25.362L215.32 26.188C215.021 26.468 214.639 26.692 214.172 26.86C213.705 27.0187 213.229 27.098 212.744 27.098C211.68 27.098 210.84 26.7853 210.224 26.16C209.617 25.5347 209.314 24.6713 209.314 23.57C209.314 22.87 209.449 22.254 209.72 21.722C209.991 21.1807 210.369 20.7607 210.854 20.462C211.349 20.1633 211.909 20.014 212.534 20.014C213.439 20.014 214.149 20.3127 214.662 20.91C215.175 21.498 215.432 22.31 215.432 23.346V23.766ZM212.548 20.896C211.951 20.896 211.47 21.0827 211.106 21.456C210.751 21.8293 210.541 22.3567 210.476 23.038H214.438C214.419 22.3473 214.247 21.82 213.92 21.456C213.593 21.0827 213.136 20.896 212.548 20.896ZM223.708 26.188C223.913 26.188 224.119 26.174 224.324 26.146L224.268 27.042C224.053 27.0793 223.82 27.098 223.568 27.098C222.747 27.098 222.126 26.8833 221.706 26.454C221.295 26.0247 221.09 25.4273 221.09 24.662V21.078H219.76V20.182H221.09V18.11H222.224V20.182H224.156V21.078H222.224V24.578C222.224 25.6513 222.719 26.188 223.708 26.188ZM228.9 20.014C230.533 20.014 231.35 20.9147 231.35 22.716V27H230.216V22.786C230.216 22.1513 230.09 21.6893 229.838 21.4C229.595 21.1107 229.203 20.966 228.662 20.966C228.037 20.966 227.537 21.1573 227.164 21.54C226.791 21.9227 226.604 22.4407 226.604 23.094V27H225.47V17.13H226.604V21.274C226.828 20.8633 227.136 20.5507 227.528 20.336C227.929 20.1213 228.387 20.014 228.9 20.014ZM239.139 23.766H234.155C234.192 24.5593 234.407 25.1613 234.799 25.572C235.191 25.9733 235.746 26.174 236.465 26.174C237.258 26.174 237.986 25.9033 238.649 25.362L239.027 26.188C238.728 26.468 238.346 26.692 237.879 26.86C237.412 27.0187 236.936 27.098 236.451 27.098C235.387 27.098 234.547 26.7853 233.931 26.16C233.324 25.5347 233.021 24.6713 233.021 23.57C233.021 22.87 233.156 22.254 233.427 21.722C233.698 21.1807 234.076 20.7607 234.561 20.462C235.056 20.1633 235.616 20.014 236.241 20.014C237.146 20.014 237.856 20.3127 238.369 20.91C238.882 21.498 239.139 22.31 239.139 23.346V23.766ZM236.255 20.896C235.658 20.896 235.177 21.0827 234.813 21.456C234.458 21.8293 234.248 22.3567 234.183 23.038H238.145C238.126 22.3473 237.954 21.82 237.627 21.456C237.3 21.0827 236.843 20.896 236.255 20.896ZM250.467 17.13V27H249.333V25.754C249.128 26.1833 248.824 26.5147 248.423 26.748C248.031 26.9813 247.569 27.098 247.037 27.098C246.44 27.098 245.912 26.9487 245.455 26.65C244.998 26.3513 244.643 25.936 244.391 25.404C244.139 24.8627 244.013 24.2373 244.013 23.528C244.013 22.828 244.139 22.212 244.391 21.68C244.643 21.148 244.998 20.7373 245.455 20.448C245.912 20.1587 246.44 20.014 247.037 20.014C247.569 20.014 248.031 20.1307 248.423 20.364C248.824 20.5973 249.128 20.9287 249.333 21.358V17.13H250.467ZM247.261 26.16C247.924 26.16 248.432 25.936 248.787 25.488C249.151 25.0307 249.333 24.3867 249.333 23.556C249.333 22.7253 249.151 22.086 248.787 21.638C248.432 21.19 247.924 20.966 247.261 20.966C246.598 20.966 246.08 21.19 245.707 21.638C245.343 22.086 245.161 22.716 245.161 23.528C245.161 24.3587 245.343 25.0073 245.707 25.474C246.08 25.9313 246.598 26.16 247.261 26.16ZM258.28 23.766H253.296C253.333 24.5593 253.548 25.1613 253.94 25.572C254.332 25.9733 254.887 26.174 255.606 26.174C256.399 26.174 257.127 25.9033 257.79 25.362L258.168 26.188C257.869 26.468 257.486 26.692 257.02 26.86C256.553 27.0187 256.077 27.098 255.592 27.098C254.528 27.098 253.688 26.7853 253.072 26.16C252.465 25.5347 252.162 24.6713 252.162 23.57C252.162 22.87 252.297 22.254 252.568 21.722C252.838 21.1807 253.216 20.7607 253.702 20.462C254.196 20.1633 254.756 20.014 255.382 20.014C256.287 20.014 256.996 20.3127 257.51 20.91C258.023 21.498 258.28 22.31 258.28 23.346V23.766ZM255.396 20.896C254.798 20.896 254.318 21.0827 253.954 21.456C253.599 21.8293 253.389 22.3567 253.324 23.038H257.286C257.267 22.3473 257.094 21.82 256.768 21.456C256.441 21.0827 255.984 20.896 255.396 20.896ZM262.905 26.188C263.111 26.188 263.316 26.174 263.521 26.146L263.465 27.042C263.251 27.0793 263.017 27.098 262.765 27.098C261.944 27.098 261.323 26.8833 260.903 26.454C260.493 26.0247 260.287 25.4273 260.287 24.662V21.078H258.957V20.182H260.287V18.11H261.421V20.182H263.353V21.078H261.421V24.578C261.421 25.6513 261.916 26.188 262.905 26.188ZM267.439 20.014C268.307 20.014 268.951 20.238 269.371 20.686C269.801 21.1247 270.015 21.7967 270.015 22.702V27H268.909V25.838C268.732 26.2393 268.461 26.552 268.097 26.776C267.733 26.9907 267.313 27.098 266.837 27.098C266.399 27.098 265.993 27.0093 265.619 26.832C265.255 26.6547 264.966 26.4073 264.751 26.09C264.537 25.7727 264.429 25.4227 264.429 25.04C264.429 24.5267 264.56 24.13 264.821 23.85C265.083 23.5607 265.512 23.3553 266.109 23.234C266.707 23.1033 267.537 23.038 268.601 23.038H268.909V22.576C268.909 22.0067 268.793 21.596 268.559 21.344C268.326 21.0827 267.948 20.952 267.425 20.952C266.641 20.952 265.862 21.1947 265.087 21.68L264.709 20.854C265.064 20.602 265.489 20.4013 265.983 20.252C266.487 20.0933 266.973 20.014 267.439 20.014ZM266.991 26.202C267.551 26.202 268.009 26.0153 268.363 25.642C268.727 25.2593 268.909 24.7693 268.909 24.172V23.766H268.657C267.836 23.766 267.211 23.8033 266.781 23.878C266.352 23.9433 266.044 24.06 265.857 24.228C265.68 24.3867 265.591 24.6247 265.591 24.942C265.591 25.306 265.722 25.6093 265.983 25.852C266.254 26.0853 266.59 26.202 266.991 26.202ZM272.091 27V20.182H273.225V27H272.091ZM271.979 17.228H273.351V18.502H271.979V17.228ZM275.345 27V17.13H276.479V27H275.345ZM280.909 27.098C279.761 27.098 278.851 26.804 278.179 26.216L278.557 25.376C278.921 25.6653 279.289 25.8753 279.663 26.006C280.045 26.1273 280.475 26.188 280.951 26.188C281.455 26.188 281.837 26.104 282.099 25.936C282.369 25.7587 282.505 25.5067 282.505 25.18C282.505 24.9093 282.416 24.6947 282.239 24.536C282.061 24.3773 281.767 24.2513 281.357 24.158L280.209 23.892C279.63 23.7613 279.187 23.5373 278.879 23.22C278.571 22.9027 278.417 22.5107 278.417 22.044C278.417 21.4373 278.655 20.9473 279.131 20.574C279.607 20.2007 280.241 20.014 281.035 20.014C281.511 20.014 281.963 20.0933 282.393 20.252C282.822 20.4013 283.181 20.6207 283.471 20.91L283.093 21.736C282.467 21.204 281.781 20.938 281.035 20.938C280.559 20.938 280.185 21.0313 279.915 21.218C279.653 21.3953 279.523 21.6473 279.523 21.974C279.523 22.2447 279.602 22.464 279.761 22.632C279.929 22.7907 280.195 22.912 280.559 22.996L281.721 23.276C282.355 23.4253 282.827 23.654 283.135 23.962C283.443 24.2607 283.597 24.6527 283.597 25.138C283.597 25.7353 283.354 26.2113 282.869 26.566C282.393 26.9207 281.739 27.098 280.909 27.098ZM288.935 27V17.13H290.069V27H288.935ZM294.961 20.014C295.829 20.014 296.473 20.238 296.893 20.686C297.322 21.1247 297.537 21.7967 297.537 22.702V27H296.431V25.838C296.253 26.2393 295.983 26.552 295.619 26.776C295.255 26.9907 294.835 27.098 294.359 27.098C293.92 27.098 293.514 27.0093 293.141 26.832C292.777 26.6547 292.487 26.4073 292.273 26.09C292.058 25.7727 291.951 25.4227 291.951 25.04C291.951 24.5267 292.081 24.13 292.343 23.85C292.604 23.5607 293.033 23.3553 293.631 23.234C294.228 23.1033 295.059 23.038 296.123 23.038H296.431V22.576C296.431 22.0067 296.314 21.596 296.081 21.344C295.847 21.0827 295.469 20.952 294.947 20.952C294.163 20.952 293.383 21.1947 292.609 21.68L292.231 20.854C292.585 20.602 293.01 20.4013 293.505 20.252C294.009 20.0933 294.494 20.014 294.961 20.014ZM294.513 26.202C295.073 26.202 295.53 26.0153 295.885 25.642C296.249 25.2593 296.431 24.7693 296.431 24.172V23.766H296.179C295.357 23.766 294.732 23.8033 294.303 23.878C293.873 23.9433 293.565 24.06 293.379 24.228C293.201 24.3867 293.113 24.6247 293.113 24.942C293.113 25.306 293.243 25.6093 293.505 25.852C293.775 26.0853 294.111 26.202 294.513 26.202ZM302.609 26.188C302.814 26.188 303.019 26.174 303.225 26.146L303.169 27.042C302.954 27.0793 302.721 27.098 302.469 27.098C301.647 27.098 301.027 26.8833 300.607 26.454C300.196 26.0247 299.991 25.4273 299.991 24.662V21.078H298.661V20.182H299.991V18.11H301.125V20.182H303.057V21.078H301.125V24.578C301.125 25.6513 301.619 26.188 302.609 26.188ZM310.082 23.766H305.098C305.136 24.5593 305.35 25.1613 305.742 25.572C306.134 25.9733 306.69 26.174 307.408 26.174C308.202 26.174 308.93 25.9033 309.592 25.362L309.97 26.188C309.672 26.468 309.289 26.692 308.822 26.86C308.356 27.0187 307.88 27.098 307.394 27.098C306.33 27.098 305.49 26.7853 304.874 26.16C304.268 25.5347 303.964 24.6713 303.964 23.57C303.964 22.87 304.1 22.254 304.37 21.722C304.641 21.1807 305.019 20.7607 305.504 20.462C305.999 20.1633 306.559 20.014 307.184 20.014C308.09 20.014 308.799 20.3127 309.312 20.91C309.826 21.498 310.082 22.31 310.082 23.346V23.766ZM307.198 20.896C306.601 20.896 306.12 21.0827 305.756 21.456C305.402 21.8293 305.192 22.3567 305.126 23.038H309.088C309.07 22.3473 308.897 21.82 308.57 21.456C308.244 21.0827 307.786 20.896 307.198 20.896ZM315.617 20.994L314.875 21.064C314.175 21.1293 313.666 21.3487 313.349 21.722C313.041 22.0953 312.887 22.5573 312.887 23.108V27H311.753V20.182H312.859V21.372C313.242 20.5787 313.993 20.1353 315.113 20.042L315.519 20.014L315.617 20.994ZM316.22 25.572H317.648V27H316.22V25.572Z" fill="#000126"/>
<rect x="0.5" y="0.5" width="658" height="43" rx="3.5" stroke="#000126" stroke-opacity="0.1"/>
</svg>
