<svg width="10" height="20" viewBox="0 0 10 20" fill="none" xmlns="http://www.w3.org/2000/svg">
<path fill-rule="evenodd" clip-rule="evenodd" d="M8.33335 5V14.5833C8.33335 16.425 6.84169 17.9167 5.00002 17.9167C3.15835 17.9167 1.66669 16.425 1.66669 14.5833V4.16667C1.66669 3.01667 2.60002 2.08333 3.75002 2.08333C4.90002 2.08333 5.83335 3.01667 5.83335 4.16667V12.9167C5.83335 13.375 5.45835 13.75 5.00002 13.75C4.54169 13.75 4.16669 13.375 4.16669 12.9167V5H2.91669V12.9167C2.91669 14.0667 3.85002 15 5.00002 15C6.15002 15 7.08335 14.0667 7.08335 12.9167V4.16667C7.08335 2.325 5.59169 0.833334 3.75002 0.833334C1.90835 0.833334 0.416687 2.325 0.416687 4.16667V14.5833C0.416687 17.1167 2.46669 19.1667 5.00002 19.1667C7.53335 19.1667 9.58335 17.1167 9.58335 14.5833V5H8.33335Z" fill="#676773"/>
</svg>
